<svg xmlns="http://www.w3.org/2000/svg" viewBox="0 0 1185.6 431.94"><defs><style>.cls-1{fill:#3061fc;}.cls-2{fill:#fff;}.cls-3{fill:#3d3d3d;}</style></defs><title>app-logo_2</title><g id="Layer_2" data-name="Layer 2"><g id="Layer_2-2" data-name="Layer 2"><g id="Layer_1-2" data-name="Layer 1-2"><path class="cls-1" d="M.58,51.73l56,342.92a44.57,44.57,0,0,0,72.12,27.26L397.61,202.13A44.57,44.57,0,0,0,385.24,126L60.33,2.89A44.57,44.57,0,0,0,.58,51.73Z"/><path class="cls-2" d="M70.52,193.42a19.27,19.27,0,0,1,2.77-27.12l85.65-70A19.29,19.29,0,0,1,186.09,99L268,199.21a19.29,19.29,0,0,1-2.72,27.15L179,296.87a19.28,19.28,0,0,1-27.14-2.73L69.77,193.72M170.59,111.3l-71.4,58.37,82.27,100.65,72-58.86Z"/></g><path class="cls-3" d="M560.09,139.2V29.46H597.7q18.62,0,28.34,7.47t9.73,22.23a23.72,23.72,0,0,1-4.07,13.57,26.25,26.25,0,0,1-11.91,9.34,24.24,24.24,0,0,1,13.75,9.08,26.48,26.48,0,0,1,4.86,16q0,15.45-9.91,23.74t-28.38,8.29Zm19.07-63.53h18.69q8.89,0,13.91-4t5-11.42q0-8.13-4.63-11.75T597.7,44.84H579.16Zm0,14V124h21.18q9,0,14-4.45t5-12.36q0-17.1-17.49-17.48Z"/><path class="cls-3" d="M707,131.21q-8.07,9.51-22.91,9.5-13.27,0-20.09-7.76t-6.82-22.46V57.65h18.31v52.61q0,15.52,12.89,15.53,13.35,0,18-9.57V57.65h18.31V139.2H707.41Z"/><path class="cls-3" d="M790.89,117.05a8.31,8.31,0,0,0-4-7.47q-4-2.55-13.38-4.52a68.44,68.44,0,0,1-15.6-5q-13.73-6.63-13.72-19.22,0-10.56,8.9-17.64t22.61-7.09q14.61,0,23.63,7.24a23,23,0,0,1,9,18.77H790a11.28,11.28,0,0,0-3.92-8.78q-3.93-3.51-10.4-3.51a16.24,16.24,0,0,0-9.84,2.79A8.79,8.79,0,0,0,762,80.11a7.41,7.41,0,0,0,3.55,6.56q3.54,2.34,14.32,4.71T796.81,97a24.13,24.13,0,0,1,9.12,7.88,20.14,20.14,0,0,1,3,11.16q0,11-9.12,17.82t-23.9,6.82A42,42,0,0,1,758,137.09a29.26,29.26,0,0,1-12.21-10,23.49,23.49,0,0,1-4.37-13.64h17.79a12.92,12.92,0,0,0,4.89,10q4.53,3.51,12,3.5,7.23,0,11-2.75A8.51,8.51,0,0,0,790.89,117.05Z"/><path class="cls-3" d="M826.74,36.47a9.74,9.74,0,0,1,2.67-7c1.78-1.86,4.34-2.79,7.65-2.79s5.88.93,7.69,2.79a9.65,9.65,0,0,1,2.71,7,9.41,9.41,0,0,1-2.71,6.9q-2.71,2.75-7.69,2.75c-3.31,0-5.87-.92-7.65-2.75A9.5,9.5,0,0,1,826.74,36.47ZM846.18,139.2H827.87V57.65h18.31Z"/><path class="cls-3" d="M885,57.65l.52,9.42q9-10.92,23.75-10.93,25.47,0,25.92,29.17V139.2H916.85V86.37q0-7.77-3.36-11.5t-11-3.73q-11.09,0-16.51,10v58H867.71V57.65Z"/><path class="cls-3" d="M991.59,140.71q-17.42,0-28.23-11t-10.82-29.2V98.28a48.92,48.92,0,0,1,4.71-21.82,35.77,35.77,0,0,1,13.23-15,35,35,0,0,1,19-5.36q16.66,0,25.74,10.63t9.09,30.08v7.38H971q.82,10.11,6.75,16a20.23,20.23,0,0,0,14.88,5.88q12.58,0,20.5-10.18l9.88,9.43a33.06,33.06,0,0,1-13.08,11.34A40.91,40.91,0,0,1,991.59,140.71ZM989.4,70.84a15.4,15.4,0,0,0-12.17,5.28q-4.63,5.28-5.92,14.7h34.9V89.46q-.62-9.19-4.9-13.91T989.4,70.84Z"/><path class="cls-3" d="M1086.07,117.05a8.31,8.31,0,0,0-4-7.47q-4-2.55-13.38-4.52a68.44,68.44,0,0,1-15.6-5q-13.72-6.63-13.72-19.22,0-10.56,8.89-17.64t22.61-7.09q14.63,0,23.63,7.24a22.94,22.94,0,0,1,9,18.77h-18.31a11.28,11.28,0,0,0-3.92-8.78c-2.62-2.34-6.08-3.51-10.41-3.51a16.21,16.21,0,0,0-9.83,2.79,8.79,8.79,0,0,0-3.81,7.46,7.41,7.41,0,0,0,3.55,6.56q3.54,2.34,14.32,4.71T1092,97a24.13,24.13,0,0,1,9.12,7.88,20.13,20.13,0,0,1,3,11.16q0,11-9.12,17.82t-23.89,6.82a42,42,0,0,1-17.86-3.62,29.26,29.26,0,0,1-12.21-10,23.49,23.49,0,0,1-4.37-13.64h17.78a12.93,12.93,0,0,0,4.9,10q4.53,3.51,12,3.5,7.23,0,11-2.75A8.51,8.51,0,0,0,1086.07,117.05Z"/><path class="cls-3" d="M1167.59,117.05a8.33,8.33,0,0,0-4-7.47q-4-2.55-13.38-4.52a68.44,68.44,0,0,1-15.6-5q-13.72-6.63-13.72-19.22,0-10.56,8.89-17.64t22.61-7.09q14.63,0,23.63,7.24a22.94,22.94,0,0,1,9,18.77h-18.31a11.28,11.28,0,0,0-3.92-8.78c-2.62-2.34-6.08-3.51-10.41-3.51a16.19,16.19,0,0,0-9.83,2.79,8.79,8.79,0,0,0-3.81,7.46,7.42,7.42,0,0,0,3.54,6.56q3.56,2.34,14.32,4.71T1173.51,97a24.13,24.13,0,0,1,9.12,7.88,20.13,20.13,0,0,1,3,11.16q0,11-9.12,17.82t-23.89,6.82a42,42,0,0,1-17.86-3.62,29.26,29.26,0,0,1-12.21-10,23.49,23.49,0,0,1-4.37-13.64h17.78a12.93,12.93,0,0,0,4.9,10q4.53,3.51,12,3.5,7.23,0,11-2.75A8.51,8.51,0,0,0,1167.59,117.05Z"/><path class="cls-3" d="M624.91,272.55q0-9.12-6.4-14.43T595.06,248q-17-4.78-24.87-10.44-11.16-8-11.15-21,0-12.58,10.36-20.47t26.49-7.87a43.84,43.84,0,0,1,19.56,4.22,31.88,31.88,0,0,1,13.38,11.76,30.81,30.81,0,0,1,4.75,16.8h-9.35q0-11.25-7.68-18.1t-20.66-6.84q-12.58,0-20,5.62a17.55,17.55,0,0,0-7.46,14.68,16.63,16.63,0,0,0,6.71,13.67q6.7,5.28,21.48,9.32T619,247.79a31.92,31.92,0,0,1,11.45,10.37,25.87,25.87,0,0,1,3.85,14.24,24.8,24.8,0,0,1-10.37,20.8Q613.53,301,596.57,301a53.61,53.61,0,0,1-21.29-4.14q-9.69-4.15-14.7-11.61a30,30,0,0,1-5-17.11h9.27q0,11.61,8.67,18.32t23.06,6.7q12.81,0,20.58-5.65A17.69,17.69,0,0,0,624.91,272.55Z"/><path class="cls-3" d="M685.55,301a35.36,35.36,0,0,1-18.8-5.12,35,35,0,0,1-13.08-14.29A44.57,44.57,0,0,1,649,261.1v-3.24a48,48,0,0,1,4.56-21.18,36.24,36.24,0,0,1,12.7-14.81,31.27,31.27,0,0,1,17.64-5.39q14.83,0,23.55,10.13t8.7,27.7v5.05H658v1.74q0,13.86,7.95,23.1a25.31,25.31,0,0,0,20,9.23,29.42,29.42,0,0,0,12.78-2.64,28.4,28.4,0,0,0,10.06-8.44l5.65,4.3Q704.47,301,685.55,301Zm-1.65-76.88a22.54,22.54,0,0,0-17.15,7.47q-7,7.45-8.48,20h48.92v-1q-.39-11.74-6.71-19.14A20.8,20.8,0,0,0,683.9,224.16Z"/><path class="cls-3" d="M773.25,225.67a33.79,33.79,0,0,0-6.1-.53,22,22,0,0,0-14.28,4.71q-5.85,4.72-8.33,13.68v56h-9V218h8.82l.15,13q7.15-14.47,23-14.47a14.71,14.71,0,0,1,6,1Z"/><path class="cls-3" d="M816.11,287.1,840.91,218h9.27l-30.45,81.56h-7.31L781.81,218h9.28Z"/><path class="cls-3" d="M866.27,194.43a6.09,6.09,0,0,1,1.66-4.31,5.94,5.94,0,0,1,4.52-1.76,6,6,0,0,1,4.56,1.76,6,6,0,0,1,1.7,4.31,5.81,5.81,0,0,1-1.7,4.27,6.1,6.1,0,0,1-4.56,1.72,5.8,5.8,0,0,1-6.18-6ZM876.9,299.54h-9V218h9Z"/><path class="cls-3" d="M933.4,293.43q9.42,0,15.79-5.31a18.73,18.73,0,0,0,6.89-13.76h8.67A25.57,25.57,0,0,1,960.08,288a29.27,29.27,0,0,1-11.42,9.61A34.44,34.44,0,0,1,933.4,301q-16,0-25.44-11.15t-9.38-30v-2.71a50.88,50.88,0,0,1,4.22-21.33,32.46,32.46,0,0,1,12.09-14.32,33.38,33.38,0,0,1,18.43-5.05q13.42,0,22.12,8t9.31,21h-8.67q-.6-9.57-6.89-15.45t-15.87-5.88q-12.21,0-19,8.82t-6.75,24.72v2.64q0,15.6,6.75,24.35T933.4,293.43Z"/><path class="cls-3" d="M1016.2,301a35.41,35.41,0,0,1-18.81-5.12,34.9,34.9,0,0,1-13.07-14.29,44.45,44.45,0,0,1-4.68-20.53v-3.24a48,48,0,0,1,4.56-21.18,36.26,36.26,0,0,1,12.71-14.81,31.24,31.24,0,0,1,17.63-5.39q14.85,0,23.56,10.13t8.7,27.7v5.05H988.61v1.74q0,13.86,8,23.1a25.31,25.31,0,0,0,20,9.23,29.35,29.35,0,0,0,12.77-2.64,28.23,28.23,0,0,0,10.06-8.44l5.66,4.3Q1035.11,301,1016.2,301Zm-1.66-76.88a22.55,22.55,0,0,0-17.15,7.47q-7,7.45-8.48,20h48.92v-1q-.37-11.74-6.71-19.14A20.8,20.8,0,0,0,1014.54,224.16Z"/><path class="cls-3" d="M1115.06,278.81a12.86,12.86,0,0,0-5.39-10.78q-5.4-4.06-16.25-6.37t-16.84-5.27a22.47,22.47,0,0,1-8.9-7.28,18.17,18.17,0,0,1-2.9-10.4q0-9.65,8.07-15.94t20.65-6.29q13.63,0,21.89,6.74a21.63,21.63,0,0,1,8.26,17.6h-9.05a14.6,14.6,0,0,0-6-11.91q-6-4.74-15.11-4.75-8.89,0-14.28,4a12.2,12.2,0,0,0-5.39,10.29,11.12,11.12,0,0,0,4.48,9.46q4.49,3.34,16.36,6.14t17.79,6a23,23,0,0,1,8.78,7.61,20.93,20.93,0,0,1-5.47,27.28Q1107.45,301,1094,301q-14.25,0-23.1-6.89t-8.86-17.45h9a15.7,15.7,0,0,0,6.67,12.32q6.15,4.41,16.25,4.41,9.42,0,15.22-4.15T1115.06,278.81Z"/></g></g></svg>