<svg xmlns="http://www.w3.org/2000/svg" viewBox="0 0 974 974"><defs><style>.cls-1{fill:#b0befd;}.cls-2{fill:#3061fc;}</style></defs><title>dummy-logo</title><g id="Layer_2" data-name="Layer 2"><g id="Layer_2-2" data-name="Layer 2"><circle class="cls-1" cx="487" cy="487" r="487"/><path class="cls-2" d="M644,284.68V689.32H508.53V611H464.47v78.32H330.68v-403H644m-89.74,88.1h44V330.37h-44v44.05m-89.74,0h44.06V330.37H464.47v44.05m-89.73,0h44.05V330.37H374.74v44.05m179.47,89.74h44V420.11h-44v44.05m-89.74,0h44.06V420.11H464.47v44.05m-89.73,0h44.05V420.11H374.74v44.05m179.47,89.73h44V509.84h-44v44.05m-89.74,0h44.06V509.84H464.47v44.05m-89.73,0h44.05V509.84H374.74v44.05m179.47,89.74h44v-44h-44v44m-179.47,0h44.05v-44H374.74v44M688,240.63H285V733.37H688Z"/></g></g></svg>